<svg id="visual" viewBox="0 0 2960 1840" width="2960" height="1840" xmlns="http://www.w3.org/2000/svg" xmlns:xlink="http://www.w3.org/1999/xlink" version="1.1"><rect x="0" y="0" width="2960" height="1840" fill="#002233"></rect><path d="M0 1300L70.5 1315.3C141 1330.7 282 1361.3 423 1361C564 1360.7 705 1329.3 846 1284.8C987 1240.3 1128 1182.7 1268.8 1217.8C1409.7 1253 1550.3 1381 1691.2 1387C1832 1393 1973 1277 2114 1262.2C2255 1247.3 2396 1333.7 2537 1318.2C2678 1302.7 2819 1185.3 2889.5 1126.7L2960 1068L2960 1841L2889.5 1841C2819 1841 2678 1841 2537 1841C2396 1841 2255 1841 2114 1841C1973 1841 1832 1841 1691.2 1841C1550.3 1841 1409.7 1841 1268.8 1841C1128 1841 987 1841 846 1841C705 1841 564 1841 423 1841C282 1841 141 1841 70.5 1841L0 1841Z" fill="#0066FF" stroke-linecap="round" stroke-linejoin="miter"></path></svg>